<?xml version="1.0" encoding="UTF-8" standalone="no"?>
<!-- Creator: CorelDRAW (Evaluation Version) -->

<svg
   xml:space="preserve"
   width="140.019mm"
   height="15mm"
   version="1.1"
   style="clip-rule:evenodd;fill-rule:evenodd;image-rendering:optimizeQuality;shape-rendering:geometricPrecision;text-rendering:geometricPrecision"
   viewBox="0 0 14001.9 1500"
   id="svg16"
   sodipodi:docname="eds.svg"
   inkscape:version="1.3 (0e150ed, 2023-07-21)"
   xmlns:inkscape="http://www.inkscape.org/namespaces/inkscape"
   xmlns:sodipodi="http://sodipodi.sourceforge.net/DTD/sodipodi-0.dtd"
   xmlns="http://www.w3.org/2000/svg"
   xmlns:svg="http://www.w3.org/2000/svg"><sodipodi:namedview
   id="namedview16"
   pagecolor="#ffffff"
   bordercolor="#000000"
   borderopacity="0.25"
   inkscape:showpageshadow="2"
   inkscape:pageopacity="0.0"
   inkscape:pagecheckerboard="0"
   inkscape:deskcolor="#d1d1d1"
   inkscape:document-units="mm"
   inkscape:zoom="1.6457083"
   inkscape:cx="283.76839"
   inkscape:cy="56.510621"
   inkscape:window-width="1504"
   inkscape:window-height="449"
   inkscape:window-x="0"
   inkscape:window-y="38"
   inkscape:window-maximized="0"
   inkscape:current-layer="Layer_x0020_1" />&#10; <defs
   id="defs1">&#10;  <style
   type="text/css"
   id="style1">&#10;   <![CDATA[
    .fil0 {fill:none;fill-rule:nonzero}
    .fil2 {fill:#89E683;fill-rule:nonzero}
    .fil1 {fill:white;fill-rule:nonzero}
   ]]>&#10;  </style>&#10; </defs>&#10; <g
   id="Layer_x0020_1"
   inkscape:label="Layer 1"
   inkscape:groupmode="layer">&#10;  <metadata
   id="CorelCorpID_0Corel-Layer" />&#10;  &#10;  &#10;  &#10;  &#10;  &#10;  &#10;  &#10;  &#10;  &#10;  &#10;  &#10;  &#10;  &#10;  &#10;  &#10;  &#10;  &#10; <g
   id="g16"
   transform="matrix(1.0551417,0,0,1.0551417,-912.60772,-832.71784)"
   style="clip-rule:evenodd;fill-rule:evenodd;image-rendering:optimizeQuality;shape-rendering:geometricPrecision;text-rendering:geometricPrecision"><path
     class="fil1"
     d="M 9601.54,1660.6 H 9226.6 v 0.03 -0.27 c -28.11,0 -51.86,-23.75 -51.86,-51.86 0,-28.11 23.75,-51.86 51.86,-51.86 v -0.01 0.01 h 374.94 z m -51.84,-647.73 -0.01,0.02 v -0.02 h -309.75 -284.89 c 33.18,126.32 148.31,219.77 284.89,219.77 v 0.26 h 309.75 v -0.02 l 0.01,0.02 c 28.1,0 51.84,23.75 51.84,51.85 0,28.11 -23.75,51.85 -51.85,51.85 H 9226.6 v 0.02 -0.02 c -149.93,0 -271.9,121.97 -271.9,271.9 0,149.93 121.98,271.9 271.9,271.9 v 0.24 h 484.96 v -0.24 h 110.01 v -595.65 c 0,-149.92 -121.96,-271.88 -271.87,-271.88 z"
     id="path1"
     style="fill:#ffffff;fill-rule:nonzero" /><path
     class="fil1"
     d="m 8447.61,1659.83 c -56.5,0 -110.01,-22.38 -150.67,-63.04 -40.65,-40.66 -63.04,-94.16 -63.04,-150.67 0,-56.5 22.39,-110.01 63.04,-150.66 40.66,-40.66 94.17,-63.05 150.67,-63.05 h 211.64 v 427.42 z m 218.58,-647.46 h -6.94 -211.95 v 0.01 c -115.17,0.09 -223.81,45.34 -305.94,127.49 -82.22,82.21 -127.5,190.97 -127.5,306.25 0,115.28 45.28,224.05 127.5,306.26 82.13,82.14 190.78,127.4 305.94,127.48 v 0.01 h 211.95 20.77 199.27 v -803.94 -63.56 -221.4 c -106.26,27.79 -189.3,113.6 -213.1,221.4 z"
     id="path2"
     style="fill:#ffffff;fill-rule:nonzero" /><path
     class="fil1"
     d="m 6257.57,1296.06 c 40.65,-40.66 94.16,-63.05 150.66,-63.05 v -0.26 h 161.54 v -0.05 0.28 c 28.12,0 51.87,23.75 51.87,51.87 0,28.11 -23.75,51.86 -51.87,51.86 h -344.24 c 8.9,-14.56 19.6,-28.22 32.04,-40.65 z m 299.21,364.64 v 0.02 -0.29 h -148.54 c -56.51,0 -110.01,-22.38 -150.67,-63.04 -12.44,-12.44 -23.14,-26.08 -32.04,-40.65 h 344.24 c 149.94,0 271.9,-121.97 271.9,-271.89 0,-149.93 -121.96,-271.9 -271.88,-271.9 l -0.02,-0.24 h -166.23 l -0.04,0.38 c -113.52,1.23 -220.44,46.29 -301.52,127.38 -82.21,82.22 -127.49,190.98 -127.49,306.26 0,115.27 45.28,224.04 127.49,306.25 77.73,77.73 179.2,122.38 287.46,127.03 v 0.47 h 167.34 v -0.02 0.02 h 284.89 C 6808.5,1754.16 6693.36,1660.7 6556.78,1660.7 Z"
     id="path3"
     style="fill:#ffffff;fill-rule:nonzero" /><path
     class="fil1"
     d="m 5742.49,1659.29 c -40.37,0 -74.49,-34.12 -74.49,-74.49 v -353.47 h 74.49 v -0.26 c 136.58,0 251.72,-93.46 284.89,-219.77 h -284.89 -74.62 V 789.2 c -123.56,32.45 -215.63,143.34 -219.58,276.01 l -0.32,0.05 v 519.54 c 0,162.41 132.11,294.53 294.52,294.53 1.71,0 3.4,0.14 5.09,0.27 l 279.96,-0.85 c -32.99,-126.59 -148.27,-219.46 -285.05,-219.46 z"
     id="path4"
     style="fill:#ffffff;fill-rule:nonzero" /><path
     class="fil1"
     d="m 5270.73,1011.3 -0.04,0.55 c -115.27,0.01 -224.02,45.29 -306.22,127.49 -81.42,81.42 -126.55,188.9 -127.41,302.95 h -0.08 v 437.81 h 220.04 v -434.5 c 0,-56.51 22.38,-110.01 63.04,-150.67 40.65,-40.65 94.16,-63.04 150.67,-63.04 v -0.56 h 101.95 V 1011.3 Z"
     id="path5"
     style="fill:#ffffff;fill-rule:nonzero" /><path
     class="fil1"
     d="m 4327.95,1231.82 c -117.84,0 -213.71,95.86 -213.71,213.71 0,117.85 95.87,213.71 213.71,213.71 117.85,0 213.72,-95.86 213.72,-213.71 0,-117.85 -95.87,-213.71 -213.72,-213.71 z m 0,647.46 c -239.17,0 -433.75,-194.58 -433.75,-433.75 0,-239.17 194.58,-433.75 433.75,-433.75 239.18,0 433.76,194.58 433.76,433.75 0,239.17 -194.58,433.75 -433.76,433.75 z"
     id="path6"
     style="fill:#ffffff;fill-rule:nonzero" /><path
     class="fil1"
     d="M 2602.76,1337.07 H 2279 l -0.01,0.07 v -0.07 c -28.4,0 -52.4,-24 -52.4,-52.41 0,-28.41 24,-52.41 52.4,-52.41 h 312.89 v -0.03 c 135.52,-0.62 249.61,-93.6 282.45,-219.11 h -282.45 -1.35 -311.55 l -0.01,0.06 v -0.06 c -149.72,0.01 -271.53,121.83 -271.53,271.55 0,149.73 121.82,271.55 271.56,271.55 h 323.76 l 0.01,-0.19 v 0.19 c 28.42,0 52.41,24 52.41,52.42 0,28.4 -23.99,52.4 -52.4,52.4 v 0.38 l -0.02,-0.38 h -332.8 l -0.05,0.83 c -126.64,9.15 -231.26,99.02 -262.47,218.31 h 262.52 21.28 311.52 l 0.03,-0.56 v 0.56 c 149.73,-0.01 271.54,-121.82 271.54,-271.54 0,-149.74 -121.82,-271.56 -271.57,-271.56 z"
     id="path7"
     style="fill:#ffffff;fill-rule:nonzero" /><path
     class="fil1"
     d="m 3534.05,1598.01 c -40.65,40.64 -94.16,63.04 -150.67,63.04 H 3170.3 v -427.42 h 213.08 c 56.51,0 110.02,22.39 150.67,63.04 40.66,40.65 63.05,94.17 63.05,150.67 0,56.51 -22.39,110.01 -63.05,150.67 z m 155.6,-456.93 c -82.22,-82.22 -190.98,-127.5 -306.27,-127.5 h -213.08 -43.53 -176.51 v 912.26 284.97 c 126.45,-33.09 220.04,-148.29 220.04,-284.97 v -44.75 h 213.08 c 115.29,0 224.05,-45.28 306.27,-127.49 82.21,-82.21 127.48,-190.98 127.48,-306.26 0,-115.28 -45.27,-224.05 -127.48,-306.26 z"
     id="path8"
     style="fill:#ffffff;fill-rule:nonzero" /><path
     class="fil2"
     d="m 1633.28,1451.36 c 138.59,-3.82 255.4,-94.76 297.61,-220.03 h -315.77 -297.61 -129.72 v 0.09 c -178.17,0.82 -322.88,146 -322.88,324.36 0,178.07 144.25,323.04 322.05,324.34 v 0.05 h 130.55 306.69 306.69 c -42.21,-125.27 -159.02,-216.22 -297.61,-220.04 h -9.08 -9.08 -425.81 c -56.57,0 -104.35,-47.79 -104.35,-104.35 0,-56.57 47.78,-104.36 104.34,-104.36 v -0.06 h 425.82 z"
     id="path9"
     style="fill:#89e683;fill-rule:nonzero" /><path
     class="fil1"
     d="m 1584.62,798.28 h -9.08 -9.08 c -138.59,3.82 -255.4,94.77 -297.61,220.04 h 604.31 9.07 9.09 c 138.58,-3.82 255.39,-94.77 297.61,-220.04 z"
     id="path10"
     style="fill:#ffffff;fill-rule:nonzero" /><path
     class="fil1"
     d="m 7520.47,1337.07 h -323.76 l -0.01,0.07 v -0.07 c -28.4,0 -52.4,-24 -52.4,-52.41 0,-28.41 24,-52.41 52.4,-52.41 h 312.89 v -0.03 c 135.52,-0.62 249.61,-93.6 282.45,-219.11 h -282.45 -1.35 -311.55 l -0.01,0.06 v -0.06 c -149.71,0.01 -271.52,121.83 -271.52,271.55 0,149.73 121.81,271.55 271.55,271.55 h 323.76 l 0.01,-0.19 v 0.19 c 28.42,0 52.41,24 52.41,52.42 0,28.4 -23.99,52.4 -52.4,52.4 v 0.38 l -0.02,-0.38 h -332.8 l -0.05,0.83 c -126.64,9.15 -231.26,99.02 -262.46,218.31 h 262.51 21.29 311.51 l 0.03,-0.56 v 0.56 c 149.73,-0.01 271.54,-121.82 271.54,-271.54 0,-149.74 -121.82,-271.56 -271.57,-271.56 z"
     id="path11"
     style="fill:#ffffff;fill-rule:nonzero" /><path
     class="fil1"
     d="m 10795.37,1225.26 -0.02,-0.11 h -420.24 l -0.03,0.2 v -0.2 c -57.27,0 -105.66,-48.4 -105.66,-105.67 0,-57.29 48.39,-105.69 105.69,-105.69 v -0.4 l 0.01,0.4 h 476.93 c 135.46,0 248.97,-95.57 276.77,-222.83 h -276.77 -476.93 l -0.03,0.78 v -0.78 c -181.14,0 -328.5,147.38 -328.5,328.52 0,181.12 147.36,328.49 328.48,328.5 v -0.37 l 0.04,0.37 h 418.22 v 0.06 c 57.28,0 105.67,48.39 105.67,105.67 0,57.29 -48.39,105.68 -105.69,105.68 v 1.58 l -0.21,-1.58 h -469.65 v 0.23 l -0.22,-0.23 c -135.46,0 -248.96,95.58 -276.76,222.82 h 276.76 l 0.22,-0.22 v 0.22 h 469.65 l 0.23,-2.08 v 2.08 c 181.13,0 328.51,-147.36 328.51,-328.5 0,-180.45 -146.28,-327.34 -326.47,-328.45 z"
     id="path12"
     style="fill:#ffffff;fill-rule:nonzero" /><path
     class="fil1"
     d="m 13550.98,1296.57 c 40.65,-40.66 94.16,-63.04 150.66,-63.04 v -0.26 h 161.54 v -0.05 0.28 c 28.12,0 51.86,23.74 51.86,51.86 0,28.11 -23.74,51.86 -51.86,51.86 h -344.24 c 8.89,-14.56 19.6,-28.21 32.04,-40.65 z m 299.21,364.64 v 0.02 -0.28 h -148.54 c -56.51,0 -110.01,-22.39 -150.67,-63.05 -12.44,-12.43 -23.15,-26.08 -32.04,-40.64 h 344.24 c 149.93,0 271.9,-121.98 271.9,-271.9 0,-149.92 -121.96,-271.9 -271.88,-271.9 l -0.02,-0.24 h -166.24 l -0.02,0.39 c -113.53,1.22 -220.45,46.29 -301.53,127.37 -82.21,82.22 -127.49,190.98 -127.49,306.26 0,115.28 45.28,224.05 127.49,306.25 77.73,77.73 179.2,122.39 287.46,127.04 v 0.46 h 167.34 v -0.02 0.02 h 284.89 c -33.17,-126.32 -148.31,-219.78 -284.89,-219.78 z"
     id="path13"
     style="fill:#ffffff;fill-rule:nonzero" /><path
     class="fil1"
     d="m 13035.9,1659.8 c -40.37,0 -74.49,-34.11 -74.49,-74.49 v -353.46 h 74.49 v -0.27 c 136.58,0 251.72,-93.46 284.89,-219.77 h -284.89 -74.62 v -222.1 c -123.56,32.45 -215.63,143.34 -219.58,276.02 l -0.32,0.04 v 519.54 c 0,162.41 132.12,294.53 294.52,294.53 1.71,0 3.4,0.14 5.09,0.27 l 279.96,-0.84 c -32.99,-126.6 -148.27,-219.47 -285.05,-219.47 z"
     id="path14"
     style="fill:#ffffff;fill-rule:nonzero" /><path
     class="fil1"
     d="m 12564.13,1011.81 -0.04,0.55 c -115.26,0.01 -224.01,45.29 -306.21,127.49 -81.42,81.42 -126.54,188.9 -127.41,302.95 l -0.08,0.01 v 437.79 h 220.04 v -434.49 c 0,-56.5 22.38,-110.01 63.04,-150.67 40.65,-40.64 94.16,-63.04 150.66,-63.04 v -0.55 h 101.97 v -220.04 z"
     id="path15"
     style="fill:#ffffff;fill-rule:nonzero" /><path
     class="fil1"
     d="m 11621.37,1232.33 c -117.85,0 -213.72,95.87 -213.72,213.72 0,117.84 95.87,213.7 213.72,213.7 117.83,0 213.7,-95.86 213.7,-213.7 0,-117.85 -95.87,-213.72 -213.7,-213.72 z m 0,647.47 c -239.18,0 -433.76,-194.59 -433.76,-433.75 0,-239.18 194.58,-433.75 433.76,-433.75 239.17,0 433.75,194.57 433.75,433.75 0,239.16 -194.58,433.75 -433.75,433.75 z"
     id="path16"
     style="fill:#ffffff;fill-rule:nonzero" /></g></g>&#10;</svg>
