<?xml version="1.0" encoding="UTF-8" standalone="no"?>
<svg
   id="Camada_1"
   data-name="Camada 1"
   viewBox="0 0 5116.8018 1000"
   version="1.1"
   sodipodi:docname="logowhite.svg"
   width="5116.8018"
   height="1000"
   inkscape:version="1.3 (0e150ed, 2023-07-21)"
   xmlns:inkscape="http://www.inkscape.org/namespaces/inkscape"
   xmlns:sodipodi="http://sodipodi.sourceforge.net/DTD/sodipodi-0.dtd"
   xmlns="http://www.w3.org/2000/svg"
   xmlns:svg="http://www.w3.org/2000/svg">
  <sodipodi:namedview
     id="namedview18"
     pagecolor="#ffffff"
     bordercolor="#000000"
     borderopacity="0.25"
     inkscape:showpageshadow="2"
     inkscape:pageopacity="0.0"
     inkscape:pagecheckerboard="0"
     inkscape:deskcolor="#d1d1d1"
     inkscape:zoom="0.16182339"
     inkscape:cx="1099.9646"
     inkscape:cy="704.4717"
     inkscape:window-width="1528"
     inkscape:window-height="823"
     inkscape:window-x="150"
     inkscape:window-y="152"
     inkscape:window-maximized="0"
     inkscape:current-layer="Camada_1" />
  <defs
     id="defs1">
    <style
       id="style1">&#10;      .cls-1 {&#10;        fill: #fffaeb;&#10;        stroke-width: 0px;&#10;      }&#10;    </style>
  </defs>
  <g
     id="g19"
     transform="translate(-240.43819,-153.90547)"
     style="fill:#ffffff">
    <g
       id="g9"
       transform="matrix(1.0643025,0,0,1.0643025,-100.96103,-88.819784)"
       style="fill:#ffffff">
      <path
         class="cls-1"
         d="M 1697.15,867.01 V 381.04 H 1579.06 V 979.95 H 1925.6 V 867.01 Z"
         id="path1"
         style="fill:#ffffff" />
      <path
         class="cls-1"
         d="m 2377.35,766.06 c 0,-63.88 -20.43,-117.5 -61.21,-160.86 -40.78,-43.32 -92.55,-65.02 -155.26,-65.02 -66.18,0 -120.35,21.52 -162.58,64.6 -42.22,43.08 -63.3,96.84 -63.3,161.27 0,64.43 21.39,118.95 64.16,161.72 42.77,42.77 99.52,64.16 170.26,64.16 82.15,0 144.31,-30.52 186.5,-91.55 l -88.98,-51.32 c -21.66,28.53 -53.62,42.77 -95.81,42.77 -65.6,0 -105.83,-26.81 -120.66,-80.43 h 322.58 c 2.85,-15.96 4.29,-31.07 4.29,-45.35 z m -328.55,-40.2 c 6.25,-27.39 19.09,-48.64 38.48,-63.75 19.4,-15.1 43.9,-22.69 73.6,-22.69 25.09,0 47.47,7.14 67.14,21.39 19.67,14.28 32.65,35.94 38.93,65.05 z"
         id="path2"
         style="fill:#ffffff" />
      <path
         class="cls-1"
         d="m 2757.22,552.16 v 53.04 c -32.51,-43.32 -78.16,-65.02 -136.9,-65.02 -58.74,0 -110.36,21.39 -151.45,64.16 -41.06,42.81 -61.58,94.44 -61.58,154.89 0,60.45 20.39,112.8 61.17,155.3 40.78,42.5 91.38,63.71 151.87,63.71 60.49,0 104.39,-21.66 136.9,-65.02 v 46.21 c 0,33.64 -9.99,59.59 -29.97,77.85 -19.94,18.26 -47.34,27.39 -82.11,27.39 -53.07,0 -90.42,-19.98 -112.08,-59.9 l -94.13,53.89 c 18.81,34.22 45.76,60.18 80.84,77.86 35.08,17.68 75.73,26.54 121.93,26.54 61.62,0 114.21,-17.4 157.87,-52.18 43.63,-34.81 65.43,-85.3 65.43,-151.45 V 552.17 h -107.79 z m -33.81,291.34 c -22.52,21.97 -51.18,32.92 -85.99,32.92 -34.81,0 -63.44,-10.95 -85.99,-32.92 -22.52,-21.97 -33.78,-50.05 -33.78,-84.27 0,-34.22 11.26,-61.48 33.78,-83.42 22.55,-21.97 51.22,-32.95 85.99,-32.95 34.77,0 63.47,10.98 85.99,32.95 22.55,21.94 33.81,49.77 33.81,83.42 0,33.65 -11.26,62.3 -33.81,84.27 z"
         id="path3"
         style="fill:#ffffff" />
      <path
         class="cls-1"
         d="m 3046.84,385.33 c -13.42,-13.7 -29.52,-20.53 -48.37,-20.53 -18.85,0 -34.09,6.83 -47.48,20.53 -13.42,13.7 -20.12,29.66 -20.12,47.92 0,18.26 6.69,34.09 20.12,47.48 13.39,13.39 29.21,20.12 47.48,20.12 18.27,0 34.95,-6.73 48.37,-20.12 13.39,-13.39 20.08,-29.21 20.08,-47.48 0,-18.27 -6.69,-34.22 -20.08,-47.92 z m -103.12,166.83 v 427.79 h 110.36 V 552.16 Z"
         id="path4"
         style="fill:#ffffff" />
      <path
         class="cls-1"
         d="M 3378.38,658.27 V 552.16 h -96.7 V 432.39 l -110.36,33.37 v 86.4 h -74.46 v 106.11 h 74.46 v 177.95 c 0,58.77 15.52,99.55 46.62,122.34 31.1,22.79 84.55,29.93 160.45,21.39 v -100.1 c -21.11,1.17 -38.82,1.27 -53.07,0.45 -14.25,-0.86 -25.09,-4.74 -32.51,-11.57 -7.41,-6.83 -11.12,-17.68 -11.12,-32.51 V 658.27 h 96.7 z"
         id="path5"
         style="fill:#ffffff" />
      <path
         class="cls-1"
         d="m 3537.93,385.33 c -13.42,-13.7 -29.52,-20.53 -48.33,-20.53 -18.81,0 -34.09,6.83 -47.51,20.53 -13.39,13.7 -20.08,29.66 -20.08,47.92 0,18.26 6.69,34.09 20.08,47.48 13.42,13.39 29.25,20.12 47.51,20.12 18.26,0 34.91,-6.73 48.33,-20.12 13.39,-13.39 20.12,-29.21 20.12,-47.48 0,-18.27 -6.73,-34.22 -20.12,-47.92 z m -103.12,166.83 v 427.79 h 110.4 V 552.16 Z"
         id="path6"
         style="fill:#ffffff" />
      <path
         class="cls-1"
         d="m 4215.56,588.1 c -29.38,-31.96 -68.59,-47.92 -117.64,-47.92 -56.47,0 -98.97,20.53 -127.49,61.62 -25.09,-41.09 -63.88,-61.62 -116.37,-61.62 -52.49,0 -93.23,19.12 -118.91,57.33 v -45.35 h -110.36 v 427.79 h 110.36 V 739.52 c 0,-31.34 7.28,-55.3 21.8,-71.85 14.55,-16.55 34.09,-24.82 58.63,-24.82 22.79,0 40.47,7.14 53.04,21.39 12.53,14.28 18.81,34.22 18.81,59.9 v 255.81 h 110.4 V 739.52 c 0,-31.34 6.97,-55.3 20.94,-71.85 13.97,-16.55 33.5,-24.82 58.63,-24.82 22.79,0 40.47,7.14 53.04,21.39 12.53,14.28 18.81,34.22 18.81,59.9 v 255.81 h 110.36 v -263.5 c 0,-53.62 -14.69,-96.39 -44.04,-128.35 z"
         id="path7"
         style="fill:#ffffff" />
      <path
         class="cls-1"
         d="m 4614.68,552.16 v 231.02 c 0,35.36 -8.55,61.89 -25.68,79.57 -17.1,17.68 -39.92,26.5 -68.45,26.5 -25.68,0 -46.2,-7.55 -61.58,-22.66 -15.41,-15.1 -23.1,-36.94 -23.1,-65.46 V 552.15 h -110.4 v 262.67 c 0,55.34 15.28,98.69 45.79,130.03 30.48,31.37 69.14,47.06 115.92,47.06 58.18,0 100.65,-19.94 127.49,-59.9 v 47.92 h 110.36 V 552.14 h -110.36 z"
         id="path8"
         style="fill:#ffffff" />
      <path
         class="cls-1"
         d="m 4938.46,876.42 181.56,-250.9 v -73.36 h -320.55 v 103.53 h 171.98 l -180.39,250.8 v 73.46 h 337.37 V 876.42 Z"
         id="path9"
         style="fill:#ffffff" />
    </g>
    <g
       id="g18"
       transform="matrix(1.0643025,0,0,1.0643025,-100.96103,-88.819784)"
       style="fill:#ffffff">
      <path
         class="cls-1"
         d="m 627.47,441.89 c -0.17,-29.12 -37.24,-42.8 -57.95,-21.7 -81.08,76.65 -140.77,128.29 -231.62,146.8 -6.26,22.17 -10.97,44.82 -13.96,67.79 C 433.39,623.77 582.6,530.14 627.47,441.89 Z"
         id="path10"
         style="fill:#ffffff" />
      <path
         class="cls-1"
         d="m 609.04,301.69 c 15.01,-14.08 30.23,-28.36 45.69,-42.43 5.77,-5.25 0.34,-14.6 -7.09,-12.23 -107.81,34.41 -200.89,108.23 -259.45,204.78 -4.01,6.61 3.01,14.46 10,11.18 80.2,-37.63 145.18,-100.06 210.85,-161.3 z"
         id="path11"
         style="fill:#ffffff" />
      <path
         class="cls-1"
         d="m 598.98,1051.41 c 48.1,-18.35 92.7,-45.3 131.75,-78.86 66.65,-54.14 215.1,-257.32 157.35,-283.09 -18.99,-12.02 -43.67,-0.67 -50.38,19.92 -16.42,33.31 -38.78,78.67 -70.42,123.58 h -0.02 c -56.46,79.93 -124.6,134.95 -214.19,163.55 -16.77,5.22 -34.8,9.66 -52.27,12.66 -12.22,3.16 -25.82,2.71 -38.37,4.95 -7.21,1.29 -9.93,10.26 -4.76,15.45 15.57,15.6 32.21,30.13 49.8,43.42 2.04,1.54 4.66,2.17 7.17,1.71 28.93,-5.19 56.87,-12.8 84.32,-23.3 z"
         id="path12"
         style="fill:#ffffff" />
      <path
         class="cls-1"
         d="m 1257.06,618.74 c -0.03,-0.19 -0.06,-0.37 -0.09,-0.56 -1.17,-7.02 -11.53,-6.32 -11.78,0.79 -2.33,66.04 -15.92,132.13 -40.71,197.53 l -0.26,0.07 c -20.78,54.71 -49.14,108.53 -84.38,160.17 -10.53,20.94 -37.43,41.55 -43.48,64.69 -3.34,12.79 12.18,22.05 22.28,13.52 120.53,-101.81 187.25,-272.76 158.41,-436.21 z"
         id="path13"
         style="fill:#ffffff" />
      <path
         class="cls-1"
         d="m 667.67,366.48 c 38.72,53.48 114.34,-86.59 243.55,-108.69 9.63,-1.65 10.21,-15.16 0.76,-17.64 -17.24,-4.53 -34.76,-8.09 -52.48,-10.64 -32.42,-4.67 -65.45,2.01 -93.41,19.08 -52.86,32.28 -126.47,84.25 -98.42,117.89 z"
         id="path14"
         style="fill:#ffffff" />
      <path
         class="cls-1"
         d="M 778.74,1098.36 C 937.83,988.29 1058.25,776.38 1049.64,586.86 1048.49,505.87 950.12,452.62 881.9,496.55 777.99,561.2 711.69,712.06 614.29,794.92 l -0.09,-0.02 c -11.13,10.75 -27.88,19.13 -31.68,35.47 -1.58,5.18 -1.64,10.41 -0.52,15.33 4.53,19.92 27.86,29.41 45.62,19.32 119.8,-68.05 182.52,-243.9 288.51,-311.21 133.87,-41.58 38.35,231.62 -1.11,295.13 h -0.05 c -49.08,88.04 -120.72,163.49 -206.21,216.22 -21.87,13.55 -44.68,25.69 -68.12,36.34 -9.9,5.54 -22.15,8.14 -31.99,13.93 -6.5,3.83 -5.9,13.43 1.06,16.34 22.42,9.4 45.68,17.06 69.4,22.85 2.09,0.51 4.31,0.27 6.25,-0.68 32.61,-15.93 63.8,-34.47 93.39,-55.59 z"
         id="path15"
         style="fill:#ffffff" />
      <path
         class="cls-1"
         d="m 1149.33,677.3 c -17.99,-6.31 -38.87,5.75 -42.69,24.35 -10.65,46.71 -27.85,94.53 -51.2,142.23 l -0.17,0.02 c -58.98,120.57 -152.47,229.32 -264.07,307.11 -7.26,5.06 -3.71,16.46 5.14,16.55 41.9,0.45 90.95,0.07 116.49,-28.39 125.58,-111.53 224.58,-271.72 258.43,-420.97 4.09,-17.67 -5.54,-35.66 -21.93,-40.91 z"
         id="path16"
         style="fill:#ffffff" />
      <path
         class="cls-1"
         d="m 490.82,931.12 c 25.12,-10.58 27.58,-45.75 4.54,-58.97 -6.96,-4.16 -15.21,-5.68 -23.24,-4.21 -33.02,6.09 -67.62,6.21 -104.89,0.32 -7.08,-1.12 -12.72,5.92 -9.92,12.52 7.7,18.14 16.53,35.76 26.44,52.74 1.53,2.63 4.3,4.32 7.34,4.5 33.38,2.04 67.89,2.52 99.73,-6.91 z"
         id="path17"
         style="fill:#ffffff" />
      <path
         class="cls-1"
         d="m 357.04,783.14 c 166.61,3.8 287.84,-124.58 377.28,-234.84 79.46,-94.19 148.1,-175.54 244.95,-156.76 101.15,19.52 130.83,102.69 137.9,168.99 3.59,43 71.83,35.88 66.32,-7.08 C 1170.31,429.89 1100.49,347 991.9,326.02 856.6,299.9 768.51,404.32 683.28,505.33 593.09,617.41 481.71,731.04 330.83,715.51 c -5.62,-0.58 -10.38,4.03 -10.04,9.67 1.01,16.71 2.9,33.32 5.64,49.74 0.69,4.16 4.22,7.33 8.43,7.58 7.47,0.43 14.86,0.65 22.17,0.65 z"
         id="path18"
         style="fill:#ffffff" />
    </g>
  </g>
</svg>
